# 3ds Max Wavefront OBJ Exporter v0.97b - (c)2007 guruware
# File Created: 13.11.2018 14:04:23

mtllib Shuriken.mtl

#
# object Rectangle001
#

v  10.0000 10.0000 0.0000
v  0.0000 120.0000 0.0000
v  0.0000 -0.0000 10.0000
v  -10.0000 10.0000 0.0000
v  -120.0000 0.0000 -0.0000
v  -10.0000 -10.0000 -0.0000
v  0.5079 -120.0000 -0.0000
v  10.0000 -10.0000 -0.0000
v  120.0000 -0.0000 0.0000
# 9 vertices

vn 0.4082 0.4082 0.8165
vn 0.0000 0.0830 0.9965
vn -0.0002 -0.0000 1.0000
vn -0.4082 0.4082 0.8165
vn -0.0830 -0.0000 0.9965
vn -0.4067 -0.4098 0.8165
vn 0.0004 -0.0830 0.9965
vn 0.4098 -0.4067 0.8165
vn 0.0830 -0.0000 0.9965
# 9 vertex normals

vt 0.5798 0.4986 0.0000
vt 0.9975 0.9824 0.0000
vt 0.4980 0.5000 0.0000
vt 0.4994 0.5818 0.0000
vt 0.0156 0.9995 0.0000
vt 0.4161 0.5014 0.0000
vt 0.0005 0.0155 0.0000
vt 0.4965 0.4182 0.0000
vt 0.9803 0.0005 0.0000
# 9 texture coords

o Rectangle001
g Rectangle001
usemtl wire_028089177
s 1
f 1/1/1 2/2/2 3/3/3 
s 4
f 2/2/2 4/4/4 3/3/3 
s 2
f 4/4/4 5/5/5 3/3/3 
s 4
f 5/5/5 6/6/6 3/3/3 
s 2
f 6/6/6 7/7/7 3/3/3 
s 4
f 7/7/7 8/8/8 3/3/3 
s 2
f 8/8/8 9/9/9 3/3/3 
s 4
f 9/9/9 1/1/1 3/3/3 
# 0 polygons - 8 triangles

